<?xml version="1.0" standalone="no"?>
<!DOCTYPE svg PUBLIC "-//W3C//DTD SVG 20010904//EN"
 "http://www.w3.org/TR/2001/REC-SVG-20010904/DTD/svg10.dtd">
<svg version="1.0" xmlns="http://www.w3.org/2000/svg"
 width="200.000000pt" height="200.000000pt" viewBox="0 0 200.000000 200.000000"
 preserveAspectRatio="xMidYMid meet">
<metadata>
Created by potrace 1.10, written by Peter Selinger 2001-2011
</metadata>
<g transform="translate(0.000000,200.000000) scale(0.100000,-0.100000)"
fill="#000000" stroke="none">
<path d="M795 1840 c-4 -6 -11 -7 -17 -4 -7 4 -8 2 -4 -4 4 -6 0 -28 -9 -49
-9 -20 -16 -51 -17 -68 -1 -33 22 -105 33 -105 7 0 20 -30 25 -57 1 -6 12 -22
24 -35 12 -13 28 -37 36 -54 7 -17 20 -36 28 -44 18 -14 22 -35 4 -24 -7 4 -8
3 -4 -4 8 -14 -18 -55 -28 -45 -4 4 -4 0 0 -10 5 -14 2 -16 -12 -10 -17 6 -18
5 -4 -12 14 -17 14 -18 -8 -6 -12 7 -21 15 -18 19 8 13 -102 4 -132 -12 -16
-8 -42 -30 -57 -48 -24 -28 -27 -39 -23 -88 3 -42 11 -65 32 -93 16 -20 32
-35 36 -32 5 3 11 1 14 -4 10 -16 67 -21 112 -10 30 8 51 21 69 45 14 19 23
34 20 34 -3 0 5 17 18 38 13 20 27 47 31 58 8 26 35 51 60 56 14 2 26 -9 43
-42 14 -25 32 -58 41 -75 9 -16 16 -32 17 -35 0 -3 10 -19 22 -36 33 -47 128
-65 178 -35 6 3 13 6 16 6 3 0 19 15 34 33 36 44 46 120 21 167 -36 67 -150
99 -210 60 -25 -17 -26 -17 -19 0 5 14 3 16 -7 10 -10 -6 -12 -4 -7 9 4 10 3
15 -3 11 -6 -3 -10 1 -10 10 0 10 -5 13 -11 9 -9 -5 -10 1 -5 22 4 16 7 35 8
42 1 6 5 12 9 12 4 0 9 10 13 23 3 12 17 34 31 49 14 15 24 31 23 35 -2 4 11
33 29 63 41 72 46 111 22 167 -10 25 -16 50 -12 56 3 7 3 9 -2 5 -4 -4 -14 -3
-20 2 -13 11 -45 3 -45 -10 0 -5 -6 -15 -13 -22 -7 -7 -24 -34 -37 -60 -13
-26 -27 -45 -32 -42 -5 3 -8 0 -6 -8 1 -7 -8 -31 -21 -53 -14 -22 -25 -44 -26
-50 0 -5 -6 -9 -13 -8 -7 2 -9 -4 -5 -15 5 -14 3 -14 -14 3 -11 11 -19 22 -17
24 2 2 -6 15 -16 29 -11 13 -20 31 -20 38 0 8 -4 14 -8 14 -5 0 -23 30 -41 66
-44 88 -79 122 -96 94z m104 -138 c85 -147 92 -162 76 -168 -5 -2 -44 55 -85
126 -70 122 -75 129 -87 107 -25 -45 -15 -82 52 -198 60 -102 76 -148 50 -141
-6 1 -10 5 -10 10 0 4 -30 59 -68 123 -45 78 -67 127 -67 148 0 35 37 131 50
131 5 0 45 -62 89 -138z m320 89 c35 -82 32 -94 -91 -307 -93 -159 -117 -194
-135 -194 -16 0 -31 -16 -58 -61 -20 -34 -42 -76 -49 -94 -8 -18 -30 -45 -50
-60 -31 -24 -42 -26 -88 -21 -72 7 -77 8 -75 15 1 4 -8 17 -20 30 -32 34 -39
92 -16 138 36 75 123 104 189 64 l32 -19 79 136 c44 75 117 201 162 280 45 78
86 142 91 142 4 0 17 -22 29 -49z m-348 -121 c7 -14 12 -28 11 -32 -1 -5 3 -8
9 -8 6 0 9 -6 6 -13 -3 -8 3 -20 13 -27 11 -8 17 -17 14 -22 -3 -4 0 -8 7 -8
7 0 10 -3 6 -6 -3 -4 3 -14 15 -23 14 -12 19 -24 14 -37 -8 -26 -34 -27 -42
-2 -3 10 -10 15 -17 12 -7 -4 -9 -4 -5 0 4 5 -5 26 -19 49 -14 22 -27 45 -28
51 -10 39 -18 55 -25 51 -11 -7 -31 52 -24 69 6 17 43 -14 65 -54z m249 -350
l20 -40 33 20 c67 41 153 13 190 -63 23 -46 16 -104 -16 -138 -12 -13 -21 -26
-20 -30 2 -7 -3 -8 -75 -15 -46 -5 -57 -3 -88 21 -20 15 -42 42 -50 61 -7 18
-27 56 -44 85 -17 28 -28 59 -25 67 8 21 16 10 65 -83 58 -110 73 -125 129
-125 49 1 67 10 94 50 28 41 22 87 -17 126 -41 41 -97 47 -139 14 -14 -11 -30
-20 -35 -20 -14 0 -74 99 -67 111 9 14 23 2 45 -41z m169 -79 c36 -34 40 -67
10 -105 -35 -45 -105 -33 -128 22 -14 33 -1 79 24 88 25 10 27 -1 9 -33 -21
-35 -14 -59 21 -75 52 -23 90 54 43 87 -13 8 -23 19 -23 23 0 4 -6 6 -12 6 -7
-1 -13 2 -13 7 0 19 39 8 69 -20z m-42 3 c-3 -4 3 -18 14 -32 15 -20 17 -27 7
-34 -7 -4 -8 -8 -3 -8 11 0 -15 -20 -27 -20 -4 0 -12 9 -18 20 -12 22 6 80 24
80 5 0 6 -3 3 -6z"/>
<path d="M1080 1608 c-58 -101 -104 -189 -104 -196 1 -7 -1 -11 -4 -8 -3 3
-27 -30 -54 -74 -28 -44 -54 -80 -60 -80 -5 0 -21 9 -35 20 -42 33 -98 27
-139 -14 -71 -71 -26 -175 77 -176 51 0 81 25 112 93 33 74 85 145 108 149 15
2 37 30 77 98 30 52 77 132 103 178 51 87 59 127 36 169 -12 21 -20 11 -117
-159z m110 117 c11 -29 -6 -79 -23 -68 -6 4 -8 0 -4 -10 3 -10 2 -17 -3 -17
-6 0 -10 -6 -10 -14 0 -8 -6 -21 -12 -28 -7 -7 -22 -31 -33 -53 -11 -22 -24
-43 -30 -47 -5 -4 -6 -8 -1 -8 4 0 -2 -9 -15 -21 -13 -11 -17 -18 -9 -14 8 4
5 -2 -7 -13 -13 -11 -23 -25 -23 -31 0 -6 -7 -11 -15 -11 -9 0 -15 -6 -14 -12
1 -7 1 -18 0 -24 -1 -13 -51 -37 -59 -29 -3 3 0 5 6 5 7 0 12 6 12 13 0 8 9
22 20 32 11 10 20 24 20 32 0 7 4 13 8 13 4 0 9 10 9 22 1 13 7 24 13 26 5 2
8 8 4 13 -3 5 -1 9 4 9 6 0 13 11 16 25 4 15 11 23 18 19 6 -4 9 -1 6 7 -3 8
1 19 9 24 7 6 15 20 17 32 6 27 35 73 48 73 5 0 6 4 3 10 -8 13 19 52 30 42 4
-4 5 1 2 11 -10 27 2 20 13 -8z m-416 -480 c-3 -13 -1 -26 5 -29 26 -17 -3
-71 -32 -60 -9 3 -14 10 -11 15 3 5 0 9 -6 9 -7 0 -3 14 9 34 28 45 26 54 -4
18 -30 -36 -32 -63 -5 -87 17 -15 24 -16 45 -7 35 16 42 40 21 75 -19 34 -14
47 14 29 14 -9 20 -9 23 1 2 7 3 -12 2 -42 -3 -64 -27 -91 -80 -91 -38 0 -75
37 -75 75 0 25 37 78 50 70 4 -3 10 2 14 10 9 24 37 6 30 -20z m111 -14 c-8
-17 -20 -33 -26 -37 -8 -4 -9 -3 -5 4 4 7 3 12 -3 12 -25 0 3 29 47 49 1 0 -4
-12 -13 -28z"/>
<path d="M1424 870 l-251 -5 -41 -28 c-97 -64 -118 -206 -45 -305 46 -61 67
-66 291 -72 199 -5 204 -6 223 -29 24 -30 24 -82 0 -112 l-19 -24 -266 0 -266
0 0 -65 0 -65 282 5 c242 4 288 7 314 22 133 73 137 279 7 359 -36 23 -49 24
-241 29 -199 5 -204 6 -223 29 -24 30 -24 82 0 112 19 24 20 24 257 26 l237 2
1 61 c1 34 -1 63 -4 63 -3 1 -118 0 -256 -3z m190 -36 c29 -7 36 -38 10 -48
-9 -3 -105 -6 -215 -6 l-199 0 -36 -33 c-29 -26 -36 -40 -36 -70 0 -54 18 -90
55 -112 27 -17 56 -20 202 -22 218 -4 229 -6 269 -50 48 -50 59 -121 31 -190
-16 -37 -60 -85 -69 -75 -3 3 -6 1 -6 -5 0 -13 6 -12 -232 -19 -236 -7 -298
-2 -298 25 0 10 8 21 18 23 9 2 118 6 242 7 162 2 232 7 250 16 50 26 70 104
39 153 -34 57 -47 60 -256 63 -106 2 -193 7 -193 11 0 5 -6 8 -12 8 -13 0 -53
33 -76 62 -20 25 -26 111 -12 154 19 56 69 99 126 106 52 7 372 9 398 2z"/>
<path d="M266 848 c-24 -33 -24 -623 0 -656 15 -22 17 -22 302 -22 331 0 336
1 374 87 36 83 8 209 -60 264 l-29 24 21 40 c13 25 22 64 24 105 4 78 -16 123
-67 157 -33 22 -40 23 -292 23 -255 0 -258 0 -273 -22z m530 -26 c50 -23 68
-66 62 -146 -3 -36 -10 -72 -15 -79 -25 -31 -20 -56 19 -109 50 -65 58 -87 58
-146 0 -52 -26 -104 -60 -122 -14 -8 -110 -12 -283 -13 -221 -2 -264 0 -277
13 -22 22 -13 596 10 610 9 6 107 10 234 9 176 -1 226 -4 252 -17z"/>
<path d="M360 753 c-19 -24 -20 -40 -20 -233 0 -193 1 -209 20 -233 l21 -26
223 0 c209 0 225 1 241 19 10 11 15 20 10 20 -4 0 -3 6 3 13 14 16 4 86 -17
113 -9 12 -30 31 -47 43 -27 19 -44 21 -161 21 -144 0 -163 4 -163 30 0 15 13
18 113 22 119 4 147 14 194 66 39 43 41 113 6 154 -14 15 -39 17 -209 17
l-193 0 -21 -26z m408 -55 c3 -40 -1 -51 -27 -80 l-29 -33 -141 0 -141 0 0
-65 0 -65 142 4 c209 5 252 -14 253 -112 l0 -52 -222 -3 -223 -2 0 230 0 230
193 -2 192 -3 3 -47z"/>
</g>
</svg>
