<?xml version="1.0" standalone="no"?>
<!DOCTYPE svg PUBLIC "-//W3C//DTD SVG 20010904//EN"
 "http://www.w3.org/TR/2001/REC-SVG-20010904/DTD/svg10.dtd">
<svg version="1.0" xmlns="http://www.w3.org/2000/svg"
 width="299.000000pt" height="168.000000pt" viewBox="0 0 299.000000 168.000000"
 preserveAspectRatio="xMidYMid meet">
<metadata>
Created by potrace 1.10, written by Peter Selinger 2001-2011
</metadata>
<g transform="translate(0.000000,168.000000) scale(0.100000,-0.100000)"
fill="#000000" stroke="none">
<path d="M1230 1280 c-8 -5 -23 -10 -33 -10 -9 0 -33 -10 -52 -22 -30 -20 -44
-41 -86 -129 -4 -9 -8 -138 -9 -288 -1 -203 2 -280 12 -302 7 -16 17 -29 21
-29 5 0 5 -4 2 -10 -3 -5 12 -22 34 -38 22 -16 37 -33 33 -37 -4 -5 -1 -5 6
-1 6 4 19 0 28 -8 22 -23 570 -24 600 -1 10 8 26 15 34 15 20 0 70 47 70 66 0
8 6 17 14 20 30 12 36 67 36 336 0 228 -3 275 -16 304 -9 19 -20 34 -25 34 -5
0 -9 6 -9 13 0 8 -11 24 -25 37 -14 13 -25 19 -25 14 0 -5 -4 -3 -9 5 -21 33
-81 41 -336 41 -144 0 -256 -4 -265 -10z m594 -57 c22 -16 51 -47 63 -68 22
-39 23 -49 23 -311 0 -215 -3 -279 -15 -306 -17 -41 -74 -95 -113 -105 -15 -4
-146 -8 -292 -8 -286 0 -308 3 -356 57 -52 56 -54 68 -54 358 0 301 3 317 70
374 49 41 54 42 379 39 l254 -2 41 -28z"/>
<path d="M1346 1175 c-4 -11 -14 -13 -37 -8 -21 4 -30 3 -26 -4 4 -6 -4 -14
-18 -17 -13 -3 -32 -19 -40 -34 -9 -15 -14 -19 -11 -9 9 29 -1 19 -23 -24 -14
-26 -24 -67 -27 -113 -3 -39 -7 -78 -10 -88 -8 -27 17 -241 30 -263 25 -39 79
-84 107 -90 16 -4 27 -10 25 -13 -7 -11 344 -3 364 8 29 16 48 11 20 -5 -14
-8 -21 -14 -16 -15 16 0 76 42 71 50 -3 4 3 14 12 21 14 12 16 12 8 0 -6 -10
-4 -12 4 -7 7 5 10 15 7 23 -3 8 -2 11 4 8 15 -9 34 37 31 75 -1 20 2 30 6 23
10 -14 8 146 -2 170 -4 9 -3 17 1 17 5 0 9 27 9 61 1 33 -2 52 -5 43 -5 -14
-8 -12 -13 11 -3 17 -9 39 -12 50 -6 19 -6 19 8 2 14 -16 15 -16 21 -1 4 10 2
22 -4 28 -8 8 -9 6 -4 -8 7 -19 7 -19 -18 0 -15 10 -26 21 -26 24 1 20 -4 30
-14 28 -7 -2 -12 4 -13 12 0 10 -10 15 -28 15 -16 1 -31 5 -35 10 -11 15 -37
18 -182 19 -74 1 -140 4 -146 8 -7 5 -14 1 -18 -7z m330 -40 c53 -16 96 -53
113 -98 14 -37 14 -357 0 -394 -6 -15 -20 -39 -32 -51 -46 -49 -72 -56 -239
-60 -183 -5 -238 7 -287 63 -38 44 -44 83 -39 283 3 144 5 164 24 188 28 39
66 65 105 74 62 14 301 11 355 -5z"/>
<path d="M1311 1077 c-13 -6 -34 -25 -45 -40 -19 -26 -21 -42 -21 -195 0 -251
5 -256 273 -250 l164 3 28 32 c36 40 44 101 38 265 -4 99 -9 124 -25 146 -35
47 -56 52 -228 52 -107 0 -168 -4 -184 -13z m264 -15 c43 -2 56 -5 45 -12 -8
-5 -10 -10 -5 -11 6 0 -3 -7 -20 -15 -22 -11 -24 -14 -7 -10 12 2 22 0 22 -5
0 -10 -31 -12 -55 -3 -13 6 -14 9 -3 16 9 7 5 7 -12 3 -35 -10 -91 -7 -106 6
-9 7 -18 7 -31 -1 -16 -9 -15 -10 6 -4 17 4 21 3 16 -6 -5 -8 -4 -11 3 -6 6 3
13 2 16 -3 4 -6 -7 -8 -25 -6 -23 3 -30 1 -25 -10 3 -9 0 -12 -8 -9 -8 3 -17
0 -22 -7 -4 -8 -3 -10 4 -5 7 4 2 -8 -11 -27 -12 -19 -26 -32 -31 -29 -5 3 -7
-4 -4 -16 4 -13 2 -19 -6 -16 -7 3 -11 -14 -11 -50 0 -41 3 -52 14 -48 9 3 12
-1 7 -14 -3 -10 -1 -26 5 -34 8 -11 9 -9 4 10 -6 21 -3 20 14 -8 12 -18 19
-37 16 -42 -3 -6 0 -8 7 -5 7 3 27 -4 43 -16 17 -12 22 -19 13 -15 -10 3 -18
2 -18 -3 0 -8 132 -10 140 -2 3 3 22 15 43 25 20 11 37 26 37 34 0 9 3 12 6 9
10 -10 53 84 54 115 0 15 -8 31 -17 37 -10 6 -12 11 -5 11 6 0 12 8 12 18 0
14 -2 15 -10 2 -8 -13 -10 -12 -10 3 0 9 -5 17 -11 17 -5 0 -7 5 -3 12 6 9 9
9 12 0 3 -9 7 -8 18 2 19 19 18 28 -3 25 -33 -3 -42 1 -48 21 -14 43 44 69 65
31 5 -11 7 -27 4 -35 -4 -10 0 -18 10 -22 13 -5 16 -25 16 -125 0 -73 -4 -119
-10 -119 -5 0 -10 -7 -10 -15 0 -8 4 -15 10 -15 5 0 7 -7 4 -15 -4 -8 -10 -13
-14 -10 -4 3 -10 -4 -13 -14 -7 -29 -64 -39 -215 -40 -106 -1 -134 2 -138 14
-3 7 -11 12 -18 9 -36 -14 -60 141 -37 224 6 18 6 30 1 27 -4 -3 -10 16 -12
41 -4 54 16 102 46 114 12 5 17 9 11 10 -5 1 -2 4 7 8 18 7 129 9 243 4z m11
-94 c90 -61 85 -192 -9 -262 -21 -15 -43 -21 -82 -21 -150 0 -213 188 -93 278
18 14 42 27 53 30 37 10 96 -1 131 -25z"/>
<path d="M1428 911 c-27 -24 -33 -36 -33 -71 0 -104 145 -139 189 -45 22 46
14 87 -26 120 -41 35 -88 33 -130 -4z m102 -1 c8 -5 11 -10 6 -10 -6 0 -1 -9
11 -19 41 -39 4 -110 -59 -111 -53 0 -78 51 -52 106 14 29 22 35 41 31 12 -2
23 0 23 4 0 12 11 11 30 -1z"/>
</g>
</svg>
